<svg class = "logo text-black dark:text-white" loading="lazy" xmlns="http://www.w3.org/2000/svg" width="88" height="88" viewBox="0 0 88 88" fill="none">
      <path d="M66.1 44.1765H44V38.8519C47.8 38.8519 50.5 37.9806 52.1 36.238C53.7 34.4954 54.5 31.333 54.5 26.7506V22.3941C54.5 17.7472 55.2 14.1006 56.6 11.4544C58.0667 8.74374 60.4333 6.83979 63.7 5.7426C66.9667 4.58087 71.3 4 76.7 4H81.7V18.328H77.3C75.4333 18.328 74.1 18.8121 73.3 19.7802C72.5 20.7483 72.1 22.5554 72.1 25.2016V32.0752C72.1 35.2377 71.5667 37.787 70.5 39.7232C69.5 41.5949 68.0333 43.0794 66.1 44.1765Z" fill="currentColor"/>
      <path d="M66.4 45H44V50.131C47.8 50.131 50.5 51.0023 52.1 52.7449C53.7 54.4875 54.5 57.65 54.5 62.2323V66.5888C54.5 71.2358 55.2 74.8823 56.6 77.5285C58.0667 80.2392 60.4333 82.1431 63.7 83.2403C66.9667 84.4021 71.3 84.9829 76.7 84.9829H81.7V70.6549H77.3C75.4333 70.6549 74.1 70.1709 73.3 69.2027C72.5 68.1701 72.1 66.363 72.1 63.7813V56.9077C72.1 53.8743 71.6 51.4218 70.6 49.5501C69.6 47.6139 68.2 46.0972 66.4 45Z" fill="currentColor"/>
      <path d="M19.6 44.1765H41.7V38.8519C37.9 38.8519 35.2 37.9806 33.6 36.238C32 34.4954 31.2 31.333 31.2 26.7506V22.3941C31.2 17.7472 30.5 14.1006 29.1 11.4544C27.6333 8.74374 25.2667 6.83979 22 5.7426C18.7333 4.58087 14.4 4 9 4H4V18.328H8.4C10.2667 18.328 11.6 18.8121 12.4 19.7802C13.2 20.7483 13.6 22.5554 13.6 25.2016V32.0752C13.6 35.2377 14.1333 37.787 15.2 39.7232C16.2 41.5949 17.6667 43.0793 19.6 44.1765Z" fill="currentColor"/>
      <path d="M19.3 45H41.7V50.131C37.9 50.131 35.2 51.0023 33.6 52.7449C32 54.4875 31.2 57.65 31.2 62.2323V66.5888C31.2 71.2358 30.5 74.8823 29.1 77.5285C27.6333 80.2392 25.2667 82.1431 22 83.2403C18.7333 84.4021 14.4 84.9829 9 84.9829H4V70.6549H8.4C10.2667 70.6549 11.6 70.1708 12.4 69.2027C13.2 68.1701 13.6 66.363 13.6 63.7813V56.9077C13.6 53.8743 14.1 51.4218 15.1 49.5501C16.1 47.6139 17.5 46.0972 19.3 45Z" fill="currentColor"/>
</svg>